# This file uses centimeters as units for non-parametric coordinates.

mtllib edge_tool_test.mtl
v -5.000000 -5.000000 5.000000
v -5.000000 5.000000 5.000000
v 5.000000 5.000000 -5.000000
v 5.000000 -5.000000 -5.000000
v -24.897153 -5.000000 -5.000000
v -24.897153 -5.000000 5.000000
v -24.897153 5.000000 5.000000
v -24.897153 5.000000 -5.000000
v -5.000000 -5.000000 21.786909
v 5.000000 -5.000000 21.786909
v 5.000000 5.000000 21.786909
v -5.000000 5.000000 21.786909
v -22.410009 5.000000 -5.000000
v -22.410009 5.000000 5.000000
v -22.410009 -5.000000 5.000000
v -22.410009 -5.000000 -5.000000
v -19.922864 5.000000 -5.000000
v -19.922864 5.000000 5.000000
v -19.922864 -5.000000 5.000000
v -19.922864 -5.000000 -5.000000
v -17.435720 5.000000 -5.000000
v -17.435720 5.000000 5.000000
v -17.435720 -5.000000 5.000000
v -17.435720 -5.000000 -5.000000
v -14.948577 5.000000 -5.000000
v -14.948577 5.000000 5.000000
v -14.948577 -5.000000 5.000000
v -14.948577 -5.000000 -5.000000
v -12.461432 5.000000 -5.000000
v -12.461432 5.000000 5.000000
v -12.461432 -5.000000 5.000000
v -12.461432 -5.000000 -5.000000
v -9.974288 5.000000 -5.000000
v -9.974288 5.000000 5.000000
v -9.974288 -5.000000 5.000000
v -9.974288 -5.000000 -5.000000
v -7.487144 5.000000 -5.000000
v -7.487144 5.000000 5.000000
v -7.487144 -5.000000 5.000000
v -7.487144 -5.000000 -5.000000
v 5.000000 5.000000 19.688545
v 5.000000 -5.000000 19.688545
v -5.000000 -5.000000 19.688545
v -5.000000 5.000000 19.688545
v 5.000000 5.000000 17.590182
v 5.000000 -5.000000 17.590182
v -5.000000 -5.000000 17.590182
v -5.000000 5.000000 17.590182
v 5.000000 5.000000 15.491818
v 5.000000 -5.000000 15.491818
v -5.000000 -5.000000 15.491818
v -5.000000 5.000000 15.491818
v 5.000000 5.000000 13.393455
v 5.000000 -5.000000 13.393455
v -5.000000 -5.000000 13.393455
v -5.000000 5.000000 13.393455
v 5.000000 5.000000 11.295091
v 5.000000 -5.000000 11.295091
v -5.000000 -5.000000 11.295091
v -5.000000 5.000000 11.295091
v 5.000000 5.000000 9.196727
v 5.000000 -5.000000 9.196727
v -5.000000 -5.000000 9.196727
v -5.000000 5.000000 9.196727
v 5.000000 5.000000 7.098364
v 5.000000 -5.000000 7.098364
v -5.000000 -5.000000 7.098364
v -5.000000 5.000000 7.098364
v -6.243572 5.000000 5.000000
v -6.243572 -5.000000 5.000000
v -1.243572 -5.000000 -5.000000
v -1.243572 5.000000 -5.000000
v -5.000000 5.000000 6.049182
v 5.000000 5.000000 1.049182
v 5.000000 -5.000000 1.049182
v -5.000000 -5.000000 6.049182
vt 0.375000 0.000000
vt 0.375000 0.250000
vt 0.625000 0.500000
vt 0.625000 0.750000
vt 0.375000 1.000000
vt 0.875000 0.000000
vt 0.875000 0.250000
vt 0.125000 0.000000
vt 0.375000 0.000000
vt 0.375000 0.250000
vt 0.125000 0.250000
vt 0.375000 0.000000
vt 0.625000 0.000000
vt 0.625000 0.250000
vt 0.375000 0.250000
vt 0.125000 0.250000
vt 0.375000 0.250000
vt 0.375000 0.000000
vt 0.125000 0.000000
vt 0.125000 0.250000
vt 0.375000 0.250000
vt 0.375000 0.000000
vt 0.125000 0.000000
vt 0.125000 0.250000
vt 0.375000 0.250000
vt 0.375000 0.000000
vt 0.125000 0.000000
vt 0.125000 0.250000
vt 0.375000 0.250000
vt 0.375000 0.000000
vt 0.125000 0.000000
vt 0.125000 0.250000
vt 0.375000 0.250000
vt 0.375000 0.000000
vt 0.125000 0.000000
vt 0.125000 0.250000
vt 0.375000 0.250000
vt 0.375000 0.000000
vt 0.125000 0.000000
vt 0.125000 0.250000
vt 0.375000 0.250000
vt 0.375000 0.000000
vt 0.125000 0.000000
vt 0.625000 0.250000
vt 0.625000 0.000000
vt 0.375000 0.000000
vt 0.375000 0.250000
vt 0.625000 0.250000
vt 0.625000 0.000000
vt 0.375000 0.000000
vt 0.375000 0.250000
vt 0.625000 0.250000
vt 0.625000 0.000000
vt 0.375000 0.000000
vt 0.375000 0.250000
vt 0.625000 0.250000
vt 0.625000 0.000000
vt 0.375000 0.000000
vt 0.375000 0.250000
vt 0.625000 0.250000
vt 0.625000 0.000000
vt 0.375000 0.000000
vt 0.375000 0.250000
vt 0.625000 0.250000
vt 0.625000 0.000000
vt 0.375000 0.000000
vt 0.375000 0.250000
vt 0.625000 0.250000
vt 0.625000 0.000000
vt 0.375000 0.000000
vt 0.375000 0.250000
vt 0.375000 0.250000
vt 0.375000 0.000000
vt 0.375000 0.375000
vt 0.375000 0.375000
vt 0.375000 0.250000
vt 0.750000 0.250000
vt 0.625000 0.375000
vt 0.625000 0.375000
vt 0.750000 0.000000
vt 0.375000 0.000000
vt 0.375000 0.500000
vn 0.000000 0.000000 1.000000
vn 0.000000 0.000000 1.000000
vn 0.000000 0.000000 1.000000
vn 0.000000 0.000000 1.000000
vn -1.000000 0.000000 0.000000
vn -1.000000 0.000000 0.000000
vn -1.000000 0.000000 0.000000
vn -1.000000 0.000000 0.000000
vn 0.000000 -1.000000 0.000000
vn 0.000000 -1.000000 0.000000
vn 0.000000 -1.000000 0.000000
vn 0.000000 -1.000000 0.000000
vn 0.000000 0.000000 1.000000
vn 0.000000 0.000000 1.000000
vn 0.000000 0.000000 1.000000
vn 0.000000 0.000000 1.000000
vn 0.000000 1.000000 0.000000
vn 0.000000 1.000000 0.000000
vn 0.000000 1.000000 0.000000
vn 0.000000 1.000000 0.000000
vn 0.000000 0.000000 -1.000000
vn 0.000000 0.000000 -1.000000
vn 0.000000 0.000000 -1.000000
vn 0.000000 0.000000 -1.000000
vn 0.000000 -1.000000 0.000000
vn 0.000000 -1.000000 0.000000
vn 1.000000 0.000000 0.000000
vn 1.000000 0.000000 0.000000
vn 1.000000 0.000000 0.000000
vn 1.000000 0.000000 0.000000
vn -1.000000 0.000000 0.000000
vn -1.000000 0.000000 0.000000
vn -1.000000 0.000000 0.000000
vn -1.000000 0.000000 0.000000
vn 0.000000 1.000000 0.000000
vn 0.000000 1.000000 0.000000
vn 0.000000 1.000000 0.000000
vn 0.000000 1.000000 0.000000
vn 0.000000 1.000000 0.000000
vn 0.000000 1.000000 0.000000
vn 0.000000 0.000000 1.000000
vn 0.000000 0.000000 1.000000
vn 0.000000 0.000000 1.000000
vn 0.000000 0.000000 1.000000
vn 0.000000 -1.000000 0.000000
vn 0.000000 -1.000000 0.000000
vn 0.000000 -1.000000 0.000000
vn 0.000000 -1.000000 0.000000
vn 0.000000 0.000000 -1.000000
vn 0.000000 0.000000 -1.000000
vn 0.000000 0.000000 -1.000000
vn 0.000000 0.000000 -1.000000
vn 0.000000 1.000000 0.000000
vn 0.000000 1.000000 0.000000
vn 0.000000 0.000000 1.000000
vn 0.000000 0.000000 1.000000
vn 0.000000 -1.000000 0.000000
vn 0.000000 -1.000000 0.000000
vn 0.000000 0.000000 -1.000000
vn 0.000000 0.000000 -1.000000
vn 0.000000 1.000000 0.000000
vn 0.000000 1.000000 0.000000
vn 0.000000 0.000000 1.000000
vn 0.000000 0.000000 1.000000
vn 0.000000 -1.000000 0.000000
vn 0.000000 -1.000000 0.000000
vn 0.000000 0.000000 -1.000000
vn 0.000000 0.000000 -1.000000
vn 0.000000 1.000000 0.000000
vn 0.000000 1.000000 0.000000
vn 0.000000 0.000000 1.000000
vn 0.000000 0.000000 1.000000
vn 0.000000 -1.000000 0.000000
vn 0.000000 -1.000000 0.000000
vn 0.000000 0.000000 -1.000000
vn 0.000000 0.000000 -1.000000
vn 0.000000 1.000000 0.000000
vn 0.000000 1.000000 0.000000
vn 0.000000 0.000000 1.000000
vn 0.000000 0.000000 1.000000
vn 0.000000 -1.000000 0.000000
vn 0.000000 -1.000000 0.000000
vn 0.000000 0.000000 -1.000000
vn 0.000000 0.000000 -1.000000
vn 0.000000 1.000000 0.000000
vn 0.000000 1.000000 0.000000
vn 0.000000 0.000000 1.000000
vn 0.000000 0.000000 1.000000
vn 0.000000 -1.000000 0.000000
vn 0.000000 -1.000000 0.000000
vn 0.000000 0.000000 -1.000000
vn 0.000000 0.000000 -1.000000
vn 0.000000 1.000000 0.000000
vn 0.000000 1.000000 0.000000
vn 0.000000 0.000000 1.000000
vn 0.000000 0.000000 1.000000
vn 0.000000 -1.000000 0.000000
vn 0.000000 -1.000000 0.000000
vn 0.000000 0.000000 -1.000000
vn 0.000000 0.000000 -1.000000
vn 1.000000 0.000000 0.000000
vn 1.000000 0.000000 0.000000
vn 1.000000 0.000000 0.000000
vn 1.000000 0.000000 0.000000
vn 0.000000 -1.000000 0.000000
vn 0.000000 -1.000000 0.000000
vn 0.000000 -1.000000 0.000000
vn 0.000000 -1.000000 0.000000
vn -1.000000 0.000000 0.000000
vn -1.000000 0.000000 0.000000
vn -1.000000 0.000000 0.000000
vn -1.000000 0.000000 0.000000
vn 0.000000 1.000000 0.000000
vn 0.000000 1.000000 0.000000
vn 0.000000 1.000000 0.000000
vn 0.000000 1.000000 0.000000
vn 1.000000 0.000000 0.000000
vn 1.000000 0.000000 0.000000
vn 0.000000 -1.000000 0.000000
vn 0.000000 -1.000000 0.000000
vn -1.000000 0.000000 0.000000
vn -1.000000 0.000000 0.000000
vn 0.000000 1.000000 0.000000
vn 0.000000 1.000000 0.000000
vn 1.000000 0.000000 0.000000
vn 1.000000 0.000000 0.000000
vn 0.000000 -1.000000 0.000000
vn 0.000000 -1.000000 0.000000
vn -1.000000 0.000000 0.000000
vn -1.000000 0.000000 0.000000
vn 0.000000 1.000000 0.000000
vn 0.000000 1.000000 0.000000
vn 1.000000 0.000000 0.000000
vn 1.000000 0.000000 0.000000
vn 0.000000 -1.000000 0.000000
vn 0.000000 -1.000000 0.000000
vn -1.000000 0.000000 0.000000
vn -1.000000 0.000000 0.000000
vn 0.000000 1.000000 0.000000
vn 0.000000 1.000000 0.000000
vn 1.000000 0.000000 0.000000
vn 1.000000 0.000000 0.000000
vn 0.000000 -1.000000 0.000000
vn 0.000000 -1.000000 0.000000
vn -1.000000 0.000000 0.000000
vn -1.000000 0.000000 0.000000
vn 0.000000 1.000000 0.000000
vn 0.000000 1.000000 0.000000
vn 1.000000 0.000000 0.000000
vn 1.000000 0.000000 0.000000
vn 0.000000 -1.000000 0.000000
vn 0.000000 -1.000000 0.000000
vn -1.000000 0.000000 0.000000
vn -1.000000 0.000000 0.000000
vn 0.000000 1.000000 0.000000
vn 0.000000 1.000000 0.000000
vn 1.000000 0.000000 0.000000
vn 1.000000 0.000000 0.000000
vn 0.000000 -1.000000 0.000000
vn 0.000000 -1.000000 0.000000
vn -1.000000 0.000000 0.000000
vn -1.000000 0.000000 0.000000
vn 0.000000 1.000000 0.000000
vn 0.000000 1.000000 0.000000
usemtl initialShadingGroup
f 9/12/1 10/13/2 11/14/3 12/15/4
f 5/8/5 6/9/6 7/10/7 8/11/8
f 1/1/9 70/73/10 71/74/11 4/4/12
f 1/1/13 2/2/14 69/72/15 70/73/16
f 3/3/17 72/75/18 69/72/19 2/2/20
f 4/4/21 71/74/22 72/75/23 3/3/24
f 4/4/12 75/79/25 76/82/26 1/5/9
f 3/7/27 74/77/28 75/80/29 4/6/30
f 2/2/31 1/1/32 76/81/33 73/76/34
f 3/3/17 2/2/20 73/76/35 74/78/36
f 14/17/37 13/16/38 8/11/39 7/10/40
f 15/18/41 14/17/42 7/10/43 6/9/44
f 16/19/45 15/18/46 6/9/47 5/8/48
f 13/16/49 16/19/50 5/8/51 8/11/52
f 18/21/53 17/20/54 13/16/38 14/17/37
f 19/22/55 18/21/56 14/17/42 15/18/41
f 20/23/57 19/22/58 15/18/46 16/19/45
f 17/20/59 20/23/60 16/19/50 13/16/49
f 22/25/61 21/24/62 17/20/54 18/21/53
f 23/26/63 22/25/64 18/21/56 19/22/55
f 24/27/65 23/26/66 19/22/58 20/23/57
f 21/24/67 24/27/68 20/23/60 17/20/59
f 26/29/69 25/28/70 21/24/62 22/25/61
f 27/30/71 26/29/72 22/25/64 23/26/63
f 28/31/73 27/30/74 23/26/66 24/27/65
f 25/28/75 28/31/76 24/27/68 21/24/67
f 30/33/77 29/32/78 25/28/70 26/29/69
f 31/34/79 30/33/80 26/29/72 27/30/71
f 32/35/81 31/34/82 27/30/74 28/31/73
f 29/32/83 32/35/84 28/31/76 25/28/75
f 34/37/85 33/36/86 29/32/78 30/33/77
f 35/38/87 34/37/88 30/33/80 31/34/79
f 36/39/89 35/38/90 31/34/82 32/35/81
f 33/36/91 36/39/92 32/35/84 29/32/83
f 38/41/93 37/40/94 33/36/86 34/37/85
f 39/42/95 38/41/96 34/37/88 35/38/87
f 40/43/97 39/42/98 35/38/90 36/39/89
f 37/40/99 40/43/100 36/39/92 33/36/91
f 42/45/101 41/44/102 11/14/103 10/13/104
f 43/46/105 42/45/106 10/13/107 9/12/108
f 44/47/109 43/46/110 9/12/111 12/15/112
f 41/44/113 44/47/114 12/15/115 11/14/116
f 46/49/117 45/48/118 41/44/102 42/45/101
f 47/50/119 46/49/120 42/45/106 43/46/105
f 48/51/121 47/50/122 43/46/110 44/47/109
f 45/48/123 48/51/124 44/47/114 41/44/113
f 50/53/125 49/52/126 45/48/118 46/49/117
f 51/54/127 50/53/128 46/49/120 47/50/119
f 52/55/129 51/54/130 47/50/122 48/51/121
f 49/52/131 52/55/132 48/51/124 45/48/123
f 54/57/133 53/56/134 49/52/126 50/53/125
f 55/58/135 54/57/136 50/53/128 51/54/127
f 56/59/137 55/58/138 51/54/130 52/55/129
f 53/56/139 56/59/140 52/55/132 49/52/131
f 58/61/141 57/60/142 53/56/134 54/57/133
f 59/62/143 58/61/144 54/57/136 55/58/135
f 60/63/145 59/62/146 55/58/138 56/59/137
f 57/60/147 60/63/148 56/59/140 53/56/139
f 62/65/149 61/64/150 57/60/142 58/61/141
f 63/66/151 62/65/152 58/61/144 59/62/143
f 64/67/153 63/66/154 59/62/146 60/63/145
f 61/64/155 64/67/156 60/63/148 57/60/147
f 66/69/157 65/68/158 61/64/150 62/65/149
f 67/70/159 66/69/160 62/65/152 63/66/151
f 68/71/161 67/70/162 63/66/154 64/67/153
f 65/68/163 68/71/164 64/67/156 61/64/155
f 70/73/16 69/72/15 38/41/96 39/42/95
f 71/74/11 70/73/10 39/42/98 40/43/97
f 72/75/23 71/74/22 40/43/100 37/40/99
f 69/72/19 72/75/18 37/40/94 38/41/93
f 74/78/36 73/76/35 68/71/164 65/68/163
f 75/80/29 74/77/28 65/68/158 66/69/157
f 76/82/26 75/79/25 66/69/160 67/70/159
f 73/76/34 76/81/33 67/70/162 68/71/161
